<svg width="20" height="20" viewBox="0 0 20 20" fill="none" xmlns="http://www.w3.org/2000/svg">
<path id="Path" d="M9.98999 0C4.46749 0 -0.0100098 4.47667 -0.0100098 10C-0.0100098 14.2367 2.62582 17.855 6.34582 19.3117C6.25832 18.5208 6.17916 17.3075 6.38082 16.4442C6.56249 15.6633 7.55332 11.4733 7.55332 11.4733C7.55332 11.4733 7.25416 10.8742 7.25416 9.98833C7.25416 8.59833 8.05999 7.56 9.06332 7.56C9.91582 7.56 10.3283 8.20083 10.3283 8.96833C10.3283 9.82583 9.78249 11.1083 9.49999 12.2975C9.26416 13.2925 9.99916 14.105 10.9808 14.105C12.7583 14.105 14.1242 12.2308 14.1242 9.52583C14.1242 7.13167 12.4042 5.4575 9.94749 5.4575C7.10249 5.4575 5.43249 7.59167 5.43249 9.79667C5.43249 10.6558 5.76332 11.5783 6.17666 12.0783C6.25832 12.1775 6.26999 12.265 6.24582 12.3658L5.96832 13.4992C5.92416 13.6825 5.82332 13.7217 5.63332 13.6333C4.38416 13.0517 3.60332 11.2258 3.60332 9.75917C3.60332 6.605 5.89499 3.7075 10.2108 3.7075C13.68 3.7075 16.3758 6.18 16.3758 9.48333C16.3758 12.93 14.2033 15.7033 11.1867 15.7033C10.1733 15.7033 9.22082 15.1775 8.89499 14.555L8.27166 16.9325C8.04582 17.8017 7.43666 18.8908 7.02832 19.5542C7.96499 19.8433 8.95916 20 9.98999 20C15.5125 20 19.99 15.5225 19.99 10C19.99 4.47667 15.5125 0 9.98999 0Z" fill="url(#paint0_linear_0_4013)"/>
<defs>
<linearGradient id="paint0_linear_0_4013" x1="9.98999" y1="-10" x2="-10.01" y2="10" gradientUnits="userSpaceOnUse">
<stop stop-color="#F6C683"/>
<stop offset="1" stop-color="#DE3838"/>
</linearGradient>
</defs>
</svg>
